<svg xmlns="http://www.w3.org/2000/svg" height="960" width="960" viewBox="0 0 29 29" class="tr-ee-u1vxT1-qrcode-white" xmlns:xlink="http://www.w3.org/1999/xlink"><path fill="transparent" d="M0,0 h29v29H0z" shape-rendering="crispEdges"/><path fill="#ffffff" d="M0 0h7v1H0zM9 0h1v1H9zM12 0h4v1H12zM17 0h2v1H17zM20 0h1v1H20zM22,0 h7v1H22zM0 1h1v1H0zM6 1h1v1H6zM11 1h3v1H11zM15 1h2v1H15zM18 1h3v1H18zM22 1h1v1H22zM28,1 h1v1H28zM0 2h1v1H0zM2 2h3v1H2zM6 2h1v1H6zM10 2h1v1H10zM12 2h1v1H12zM16 2h1v1H16zM20 2h1v1H20zM22 2h1v1H22zM24 2h3v1H24zM28,2 h1v1H28zM0 3h1v1H0zM2 3h3v1H2zM6 3h1v1H6zM9 3h3v1H9zM13 3h1v1H13zM15 3h1v1H15zM17 3h1v1H17zM19 3h1v1H19zM22 3h1v1H22zM24 3h3v1H24zM28,3 h1v1H28zM0 4h1v1H0zM2 4h3v1H2zM6 4h1v1H6zM8 4h1v1H8zM10 4h8v1H10zM19 4h2v1H19zM22 4h1v1H22zM24 4h3v1H24zM28,4 h1v1H28zM0 5h1v1H0zM6 5h1v1H6zM10 5h2v1H10zM19 5h1v1H19zM22 5h1v1H22zM28,5 h1v1H28zM0 6h7v1H0zM8 6h1v1H8zM10 6h1v1H10zM12 6h1v1H12zM14 6h1v1H14zM16 6h1v1H16zM18 6h1v1H18zM20 6h1v1H20zM22,6 h7v1H22zM8 7h2v1H8zM11 7h3v1H11zM17 7h4v1H17zM2 8h2v1H2zM6 8h6v1H6zM13 8h3v1H13zM19 8h4v1H19zM24 8h1v1H24zM4 9h1v1H4zM7 9h2v1H7zM10 9h1v1H10zM12 9h1v1H12zM14 9h2v1H14zM23 9h4v1H23zM28,9 h1v1H28zM0 10h2v1H0zM4 10h1v1H4zM6 10h1v1H6zM8 10h2v1H8zM22 10h2v1H22zM25 10h1v1H25zM27 10h1v1H27zM0 11h5v1H0zM19 11h1v1H19zM24 11h1v1H24zM28,11 h1v1H28zM0 12h2v1H0zM4 12h3v1H4zM9 12h1v1H9zM20 12h2v1H20zM23 12h1v1H23zM25,12 h4v1H25zM1 13h3v1H1zM5 13h1v1H5zM9 13h1v1H9zM19 13h1v1H19zM22 13h2v1H22zM25 13h2v1H25zM28,13 h1v1H28zM1 14h3v1H1zM5 14h3v1H5zM9 14h1v1H9zM19 14h1v1H19zM21 14h5v1H21zM28,14 h1v1H28zM1 15h2v1H1zM4 15h2v1H4zM8 15h1v1H8zM20 15h2v1H20zM24 15h2v1H24zM2 16h2v1H2zM6 16h1v1H6zM8 16h1v1H8zM20 16h1v1H20zM24 16h2v1H24zM27 16h1v1H27zM3 17h3v1H3zM8 17h1v1H8zM19 17h3v1H19zM23 17h1v1H23zM0 18h1v1H0zM4 18h3v1H4zM9 18h1v1H9zM19 18h1v1H19zM22 18h1v1H22zM25 18h1v1H25zM2 19h1v1H2zM4 19h1v1H4zM10 19h3v1H10zM14 19h1v1H14zM17 19h3v1H17zM21 19h2v1H21zM26 19h1v1H26zM1 20h1v1H1zM3 20h2v1H3zM6 20h1v1H6zM9 20h2v1H9zM13 20h6v1H13zM20 20h5v1H20zM26,20 h3v1H26zM8 21h1v1H8zM11 21h1v1H11zM14 21h3v1H14zM19 21h2v1H19zM24 21h2v1H24zM27,21 h2v1H27zM0 22h7v1H0zM8 22h1v1H8zM10 22h4v1H10zM17 22h1v1H17zM19 22h2v1H19zM22 22h1v1H22zM24 22h1v1H24zM26 22h2v1H26zM0 23h1v1H0zM6 23h1v1H6zM9 23h2v1H9zM12 23h3v1H12zM16 23h3v1H16zM20 23h1v1H20zM24 23h1v1H24zM27,23 h2v1H27zM0 24h1v1H0zM2 24h3v1H2zM6 24h1v1H6zM9 24h2v1H9zM13 24h1v1H13zM16 24h1v1H16zM18 24h1v1H18zM20 24h7v1H20zM0 25h1v1H0zM2 25h3v1H2zM6 25h1v1H6zM8 25h4v1H8zM13 25h2v1H13zM16 25h1v1H16zM19 25h1v1H19zM24 25h1v1H24zM26 25h2v1H26zM0 26h1v1H0zM2 26h3v1H2zM6 26h1v1H6zM8 26h5v1H8zM14 26h2v1H14zM17 26h2v1H17zM20 26h1v1H20zM23 26h1v1H23zM28,26 h1v1H28zM0 27h1v1H0zM6 27h1v1H6zM10 27h1v1H10zM14 27h3v1H14zM21 27h1v1H21zM24 27h2v1H24zM27 27h1v1H27zM0 28h7v1H0zM9 28h1v1H9zM12 28h6v1H12zM20 28h2v1H20zM23 28h1v1H23zM25 28h1v1H25zM27 28h1v1H27z" shape-rendering="crispEdges"/><image xlink:href="data:image/svg+xml,%3Csvg xmlns='http://www.w3.org/2000/svg' width='2000' height='2000' viewBox='0 0 2000 2000' fill='none'%3E%3Cpath d='M1113.74 600.049L1372.44 335.418L1523.55 488.182L1251.55 745.595H1633.55V958.503H1249.14L1522.34 1223.13L1371.23 1372.29L1000.11 1000.6L628.994 1372.29L479.097 1223.13L752.297 958.503H367.882V745.595H749.88L477.888 488.182L627.785 335.418L886.48 600.049V223.551H1111.33V600.049H1113.74ZM888.898 1264.03H1113.74V1769.24H888.898V1264.03Z' fill='%23ffffff'/%3E%3C/svg%3E" height="8.458333333333334" width="8.458333333333334" x="10.270833333333332" y="10.270833333333332" preserveAspectRatio="none"/></svg>