<svg width="24" height="25" viewBox="0 0 24 25" fill="none" xmlns="http://www.w3.org/2000/svg">
<g clip-path="url(#clip0_2015_1310)">
<path d="M19.1127 3.0875C19.0129 3.08785 18.9148 3.06201 18.8278 3.0125C16.449 1.775 14.3925 1.25 11.9146 1.25C9.4739 1.25 7.1448 1.8375 5.02622 3.0125C4.72897 3.175 4.35732 3.0625 4.18385 2.7625C4.02272 2.4625 4.13415 2.075 4.43156 1.9125C6.73596 0.625 9.26339 0 11.9146 0C14.5659 0 16.8703 0.5875 19.3976 1.875C19.7074 2.0625 19.819 2.4375 19.6578 2.7375C19.5464 2.9625 19.3481 3.0875 19.1127 3.0875ZM1.38387 9.65C1.2558 9.64931 1.13081 9.61016 1.02473 9.5375C0.764355 9.3375 0.677617 8.95 0.875944 8.6625C2.10246 6.9125 3.66342 5.5375 5.52179 4.575C9.43686 2.55 14.3925 2.5375 18.295 4.5625C20.1534 5.525 21.7144 6.875 22.9409 8.625C23.1392 8.9 23.0648 9.3 22.7923 9.5C22.5073 9.7 22.1232 9.6375 21.925 9.375C20.8099 7.775 19.3976 6.5375 17.7251 5.675C14.1694 3.8375 9.62268 3.8375 6.07942 5.6875C4.39436 6.5625 2.98202 7.8125 1.8671 9.375C1.76801 9.5625 1.58203 9.65 1.38387 9.65ZM9.12711 24.7375C8.96598 24.7375 8.81735 24.675 8.69342 24.55C7.61569 23.4625 7.03337 22.7625 6.20319 21.25C5.34832 19.7125 4.90244 17.8375 4.90244 15.825C4.90244 12.1125 8.04922 9.0875 11.9146 9.0875C15.7801 9.0875 18.9269 12.1125 18.9269 15.825C18.9269 15.9907 18.8616 16.1497 18.7454 16.2669C18.6291 16.3843 18.4716 16.4502 18.3074 16.4502C18.1432 16.4502 17.9857 16.3843 17.8694 16.2669C17.8119 16.2089 17.7663 16.1401 17.7352 16.0642C17.7041 15.9884 17.688 15.9071 17.688 15.825C17.688 12.8 15.0987 10.3375 11.9146 10.3375C8.73061 10.3375 6.14114 12.8 6.14114 15.825C6.14114 17.625 6.5378 19.2875 7.29343 20.625C8.08641 22.075 8.63153 22.6875 9.58549 23.6625C9.69878 23.7817 9.76206 23.9408 9.76206 24.1063C9.76206 24.2717 9.69878 24.4307 9.58549 24.55C9.43686 24.675 9.28824 24.7375 9.12711 24.7375ZM18.0101 22.425C16.5357 22.425 15.235 22.05 14.1694 21.3125C12.3234 20.05 11.2208 18 11.2208 15.825C11.2208 15.6593 11.2861 15.5003 11.4023 15.3831C11.5187 15.2658 11.6762 15.1999 11.8404 15.1999C12.0045 15.1999 12.162 15.2658 12.2784 15.3831C12.3358 15.4411 12.3814 15.5099 12.4125 15.5858C12.4437 15.6616 12.4597 15.7429 12.4597 15.825C12.4597 17.5875 13.3518 19.25 14.8632 20.275C15.7429 20.875 16.7711 21.1625 18.0101 21.1625C18.3074 21.1625 18.8029 21.125 19.2985 21.0375C19.6331 20.975 19.9676 21.2 20.0171 21.55C20.079 21.875 19.856 22.2125 19.5092 22.275C18.803 22.4125 18.1836 22.425 18.0101 22.425ZM15.5199 25H15.3588C13.389 24.425 12.1004 23.6875 10.7501 22.35C9.01552 20.625 8.06156 18.3 8.06156 15.825C8.06156 13.8 9.77131 12.15 11.8774 12.15C13.9836 12.15 15.6934 13.8 15.6934 15.825C15.6934 17.1625 16.8703 18.25 18.2702 18.25C19.695 18.25 20.8471 17.1625 20.8471 15.825C20.8471 11.1125 16.8206 7.2875 11.865 7.2875C8.34663 7.2875 5.10061 9.2625 3.67593 12.325C3.1927 13.3375 2.94483 14.525 2.94483 15.825C2.94483 16.8 3.03156 18.3375 3.77501 20.3375C3.89894 20.6625 3.73781 21.025 3.41571 21.1375C3.09345 21.25 2.73432 21.0875 2.62273 20.775C2.00338 19.1375 1.71847 17.5 1.71847 15.825C1.71847 14.325 2.00338 12.9625 2.56084 11.775C4.20854 8.2875 7.8634 6.025 11.865 6.025C17.4897 6.025 22.0862 10.4125 22.0862 15.8125C22.0862 17.8375 20.3764 19.4875 18.2702 19.4875C16.1641 19.4875 14.4544 17.8375 14.4544 15.8125C14.4544 14.475 13.3022 13.3875 11.8774 13.3875C10.4527 13.3875 9.30058 14.475 9.30058 15.8125C9.30058 17.95 10.1183 19.95 11.6173 21.45C12.7943 22.625 13.9217 23.275 15.6685 23.75C16.003 23.85 16.189 24.2 16.1022 24.525C16.0402 24.8125 15.7801 25 15.5199 25Z" fill="#F4F6F9"/>
</g>
<defs>
<clipPath id="clip0_2015_1310">
<rect width="24" height="25" fill="white"/>
</clipPath>
</defs>
</svg>
