<svg width="241" height="159" viewBox="0 0 241 159" fill="none" xmlns="http://www.w3.org/2000/svg">
<g clip-path="url(#clip0_8001_3875)">
<path d="M172.976 99.0714L154.732 82.3019C171.847 62.943 171.129 33.4223 152.548 14.9367C133.206 -4.31224 101.848 -4.31224 82.5065 14.9367C63.1645 34.1856 63.1645 65.3919 82.5065 84.6408C92.1775 94.2653 104.849 99.0775 117.527 99.0775H172.976V99.0714ZM139.784 27.6329C151.486 39.2788 152.038 57.801 141.471 70.1064L95.2641 27.6329C107.555 15.4008 127.486 15.4008 139.784 27.6329Z" fill="url(#paint0_linear_8001_3875)"/>
<path d="M95.2641 27.6331C89.5695 33.3003 86.041 41.1354 86.041 49.7828C86.041 67.0836 100.136 81.1112 117.521 81.1112C127.112 81.1112 135.691 76.8363 141.465 70.1065L95.2641 27.6331Z" fill="url(#paint1_linear_8001_3875)"/>
<path opacity="0.8" d="M139.784 27.633C151.486 39.2789 152.038 57.8011 141.471 70.1065L154.732 82.3019C171.847 62.9431 171.129 33.4223 152.548 14.9368" fill="url(#paint2_linear_8001_3875)"/>
</g>
<g clip-path="url(#clip1_8001_3875)">
<path d="M34.7487 157.28L29.9149 153.241C32.8882 150.188 34.7252 146.038 34.7252 141.468C34.731 132.111 27.0535 124.5 17.6155 124.5C8.17755 124.5 0.5 132.111 0.5 141.468C0.5 150.824 8.17755 158.436 17.6155 158.436C21.8605 158.436 25.7464 156.895 28.7433 154.344L33.7125 158.506L34.7487 157.286V157.28ZM17.6155 126.099C26.1644 126.099 33.1178 132.993 33.1178 141.468C33.1178 145.647 31.428 149.435 28.6844 152.214L5.06885 132.45C7.88905 128.603 12.4638 126.099 17.6155 126.099ZM27.4951 153.299C24.8103 155.506 21.366 156.836 17.6155 156.836C9.06659 156.836 2.11323 149.943 2.11323 141.468C2.11323 138.678 2.87274 136.057 4.1857 133.804L27.4951 153.305V153.299Z" fill="#F4F6F9"/>
<path d="M66.8072 124.897V145.431C66.8072 151.718 61.6614 156.837 55.3321 156.837C49.0028 156.837 43.857 151.718 43.857 145.431V124.897H42.2496V145.431C42.2496 152.599 48.1197 158.436 55.338 158.436C62.5563 158.436 68.4263 152.605 68.4263 145.431V124.897H66.819H66.8072Z" fill="#F4F6F9"/>
<path d="M205.716 124.897V145.431C205.716 151.718 200.57 156.837 194.24 156.837C187.911 156.837 182.765 151.718 182.765 145.431V124.897H181.158V145.431C181.158 152.599 187.028 158.436 194.246 158.436C201.465 158.436 207.335 152.605 207.335 145.431V124.897H205.727H205.716Z" fill="#F4F6F9"/>
<path d="M138.737 124.897V155.056L115.21 124.897H114.174V157.829H115.704V128.002L138.967 157.835H140.268V124.897H138.737Z" fill="#F4F6F9"/>
<path d="M105.436 157.811H107.238L90.6406 124.897H89.4218L72.8185 157.811H74.6201L80.4961 146.155H99.5545L105.43 157.811H105.436ZM90.0341 127.261L98.7597 144.556H81.3144L90.04 127.261H90.0341Z" fill="#F4F6F9"/>
<path d="M173.392 124.897H148.022V126.35H159.945V157.835H161.47V126.35H173.392V124.897Z" fill="#F4F6F9"/>
<path d="M239.599 145.945C239.01 144.953 238.151 144.112 237.056 143.441C235.99 142.787 234.671 142.238 233.152 141.806C231.651 141.38 229.961 140.983 228.124 140.616C226.299 140.254 224.715 139.88 223.414 139.507C222.136 139.139 221.077 138.695 220.276 138.188C219.499 137.697 218.916 137.09 218.551 136.384C218.18 135.672 217.991 134.761 217.991 133.681C217.991 132.602 218.186 131.539 218.568 130.658C218.945 129.782 219.546 129.018 220.364 128.382C221.188 127.734 222.266 127.232 223.561 126.887C224.874 126.537 226.481 126.356 228.336 126.356C230.191 126.356 231.898 126.607 233.264 127.103C234.612 127.594 235.937 128.527 237.191 129.864L237.486 130.173L238.645 128.954L238.386 128.679C237.044 127.243 235.537 126.21 233.912 125.597C232.298 124.99 230.391 124.687 228.236 124.687C226.434 124.687 224.792 124.885 223.343 125.27C221.883 125.662 220.611 126.251 219.563 127.016C218.504 127.792 217.679 128.761 217.108 129.887C216.537 131.014 216.249 132.321 216.249 133.775C216.249 135.228 216.519 136.361 217.043 137.312C217.573 138.263 218.368 139.063 219.404 139.688C220.411 140.295 221.659 140.802 223.102 141.188C224.521 141.567 226.175 141.929 228.012 142.262C229.885 142.618 231.539 143.015 232.923 143.435C234.277 143.844 235.407 144.351 236.273 144.929C237.115 145.495 237.745 146.172 238.151 146.943C238.557 147.713 238.757 148.688 238.757 149.826C238.757 152.126 237.88 153.795 236.072 154.922C234.235 156.072 231.674 156.656 228.466 156.656C226.005 156.656 223.785 156.282 221.865 155.547C219.952 154.811 218.15 153.609 216.519 151.957L216.254 151.694L214.93 152.809L215.242 153.113C217.049 154.869 219.033 156.177 221.147 156.994C223.255 157.811 225.698 158.226 228.418 158.226C232.128 158.226 235.083 157.496 237.215 156.066C239.393 154.601 240.494 152.453 240.494 149.686C240.494 148.198 240.194 146.937 239.599 145.939V145.945Z" fill="#F4F6F9"/>
</g>
<defs>
<linearGradient id="paint0_linear_8001_3875" x1="85.2188" y1="99.3157" x2="159.087" y2="25.0966" gradientUnits="userSpaceOnUse">
<stop offset="0.07" stop-color="#0000FF"/>
<stop offset="0.5" stop-color="#ED4CCE"/>
<stop offset="1" stop-color="#FFE91F"/>
</linearGradient>
<linearGradient id="paint1_linear_8001_3875" x1="85.1206" y1="54.3752" x2="140.545" y2="54.3752" gradientUnits="userSpaceOnUse">
<stop stop-color="#1E1E95"/>
<stop offset="0.94" stop-color="#ED4CCE" stop-opacity="0.5"/>
</linearGradient>
<linearGradient id="paint2_linear_8001_3875" x1="155.302" y1="77.7297" x2="179.466" y2="49.8045" gradientUnits="userSpaceOnUse">
<stop stop-color="#0000FF"/>
<stop offset="0.406556" stop-color="#FC6AD4" stop-opacity="0.2"/>
<stop offset="0.88743" stop-color="#FFDE1D" stop-opacity="0"/>
</linearGradient>
<clipPath id="clip0_8001_3875">
<rect width="105" height="99" fill="white" transform="translate(68 0.5)"/>
</clipPath>
<clipPath id="clip1_8001_3875">
<rect width="240" height="34" fill="white" transform="translate(0.5 124.5)"/>
</clipPath>
</defs>
</svg>
