<svg width="22" height="22" viewBox="0 0 22 22" fill="none" xmlns="http://www.w3.org/2000/svg">
<path d="M20.5 11C20.5 5.75329 16.2467 1.5 11 1.5C5.75329 1.5 1.5 5.75329 1.5 11C1.5 16.2467 5.75329 20.5 11 20.5C12.1112 20.5 13.1772 20.3098 14.167 19.96C14.4273 19.868 14.7127 20.0043 14.8047 20.2646C14.8965 20.5249 14.7602 20.8103 14.5 20.9023C13.4046 21.2895 12.2263 21.5 11 21.5C5.20101 21.5 0.5 16.799 0.5 11C0.5 5.20101 5.20101 0.5 11 0.5C16.799 0.5 21.5 5.20101 21.5 11C21.5 12.2263 21.2895 13.4046 20.9023 14.5C20.8103 14.7602 20.5249 14.8965 20.2646 14.8047C20.0043 14.7127 19.868 14.4273 19.96 14.167C20.3098 13.1772 20.5 12.1112 20.5 11Z" fill="#0C1014" stroke="#0C1014" stroke-width="0.2" stroke-linecap="round"/>
<path d="M14.3203 13.6162C14.5321 13.793 14.5605 14.1083 14.3837 14.3203C14.2069 14.5322 13.8917 14.5605 13.6796 14.3838L10.6796 11.8838C10.5658 11.7888 10.5 11.6483 10.5 11.5V5.5C10.5 5.22386 10.7238 5 11 5C11.2761 5 11.5 5.22386 11.5 5.5V11.2656L14.3203 13.6162Z" fill="#0C1014"/>
<path d="M17.5 14C17.7761 14 18 14.2239 18 14.5V17H20.5C20.7761 17 21 17.2239 21 17.5C21 17.7761 20.7761 18 20.5 18H18V20.5C18 20.7761 17.7761 21 17.5 21C17.2239 21 17 20.7761 17 20.5V18H14.5C14.2239 18 14 17.7761 14 17.5C14 17.2239 14.2239 17 14.5 17H17V14.5C17 14.2239 17.2239 14 17.5 14Z" fill="#0C1014"/>
</svg>
