<svg width="18" height="18" viewBox="0 0 18 18" fill="none" xmlns="http://www.w3.org/2000/svg">
<path d="M17.9395 6.86952C17.8722 6.66905 17.7498 6.49161 17.5862 6.35754C17.4227 6.22348 17.2247 6.13822 17.0149 6.11155C15.7314 5.93909 14.496 5.50857 13.3833 4.84592L14.1082 4.12171C14.4136 3.78769 14.5784 3.34873 14.5683 2.89625C14.5582 2.44377 14.3739 2.01262 14.0539 1.69259C13.7338 1.37255 13.3027 1.18829 12.8502 1.17817C12.3977 1.16806 11.9588 1.33286 11.6248 1.63827L10.6966 2.5671C10.5328 2.37022 10.4287 2.22678 10.3865 2.16702C10.2924 2.0325 10.1699 1.92023 10.0278 1.83808C9.8856 1.75593 9.72717 1.7059 9.56361 1.69149C9.40005 1.67708 9.23532 1.69866 9.08098 1.75469C8.92664 1.81072 8.78644 1.89986 8.67022 2.01585L5.95335 4.73483C5.83745 4.851 5.74837 4.99112 5.69235 5.14535C5.63634 5.29959 5.61474 5.46421 5.62908 5.62768C5.64341 5.79115 5.69334 5.9495 5.77535 6.09163C5.85736 6.23376 5.96947 6.35624 6.10382 6.45046C6.16428 6.49264 6.30772 6.59671 6.5046 6.76053L0.513268 12.7512C0.207859 13.0852 0.0430561 13.5241 0.0531742 13.9766C0.0632922 14.4291 0.247552 14.8602 0.567586 15.1803C0.887621 15.5003 1.31877 15.6846 1.77125 15.6947C2.22373 15.7048 2.66269 15.54 2.99671 15.2346L8.78342 9.44718C9.44577 10.56 9.87627 11.7953 10.049 13.0788C10.076 13.2881 10.1614 13.4856 10.2953 13.6488C10.4292 13.8119 10.6063 13.9341 10.8063 14.0013C10.923 14.0407 11.0453 14.0609 11.1684 14.0611C11.3156 14.061 11.4613 14.0318 11.5972 13.9752C11.7331 13.9187 11.8564 13.8358 11.9601 13.7313L17.6681 8.02264C17.8171 7.87534 17.9216 7.68904 17.9696 7.4851C18.0176 7.28116 18.0072 7.06781 17.9395 6.86952ZM12.4228 2.4335C12.4792 2.36633 12.549 2.31161 12.6277 2.27284C12.7064 2.23407 12.7923 2.21208 12.8799 2.20827C12.9676 2.20447 13.055 2.21893 13.1368 2.25073C13.2186 2.28254 13.2928 2.33099 13.3548 2.39302C13.4169 2.45506 13.4653 2.52931 13.4971 2.61107C13.5289 2.69283 13.5434 2.7803 13.5396 2.86795C13.5358 2.95559 13.5138 3.04149 13.475 3.12018C13.4362 3.19887 13.3815 3.26864 13.3144 3.32507L12.4319 4.20749C12.0945 3.95367 11.7724 3.68015 11.4673 3.38835L12.4228 2.4335ZM2.20077 14.4387C2.14435 14.5058 2.07458 14.5605 1.99588 14.5993C1.91719 14.6381 1.83129 14.6601 1.74365 14.6639C1.65601 14.6677 1.56853 14.6532 1.48677 14.6214C1.40501 14.5896 1.33076 14.5412 1.26873 14.4791C1.2067 14.4171 1.15824 14.3429 1.12643 14.2611C1.09463 14.1793 1.08017 14.0919 1.08398 14.0042C1.08778 13.9166 1.10977 13.8307 1.14854 13.752C1.18732 13.6733 1.24203 13.6035 1.30921 13.5471L7.32655 7.52975C7.61853 7.8345 7.89206 8.1564 8.14569 8.49374L2.20077 14.4387ZM11.1649 12.9305C10.5462 8.31585 7.13741 5.80077 6.74928 5.53007L9.46757 2.81108C9.73897 3.1978 12.2541 6.60796 16.868 7.2253L11.1649 12.9305Z" fill="#FF6B35"/>
</svg>
