<svg width="32" height="32" viewBox="0 0 32 32" fill="none" xmlns="http://www.w3.org/2000/svg">
<path d="M26.9678 32.002L16.0908 21.1152L17.9309 19.2751L28.8079 30.162L26.9678 32.002Z" fill="#FF6B35"/>
<path d="M19.2822 17.9237L21.1216 16.0843L32.0003 26.9695L30.1599 28.8099L19.2822 17.9237Z" fill="#FF6B35"/>
<path d="M30.8484 12.4717C30.7679 12.0707 30.671 11.6759 30.5587 11.2882C29.4871 7.50704 26.9833 4.43843 23.8055 2.46492C20.8283 0.574338 17.2352 -0.351842 13.5881 0.122851C12.9367 0.203388 12.2852 0.327949 11.6375 0.49892C9.44901 1.06439 7.32091 2.15335 5.40507 3.84191C5.40302 3.84361 5.40098 3.84532 5.39927 3.84702C5.38835 3.85658 5.37743 3.86648 5.36685 3.87603C5.33682 3.90265 5.30645 3.92961 5.27642 3.95691C5.2614 3.97056 5.24638 3.98387 5.23171 3.99752C5.20338 4.02346 5.17472 4.04939 5.14639 4.07533C5.12012 4.09922 5.09418 4.12344 5.06825 4.14767C5.0563 4.15894 5.04402 4.1702 5.03207 4.18146C4.95324 4.25517 4.87509 4.32922 4.79831 4.40362C4.60584 4.58688 4.41508 4.77662 4.2267 4.9725C4.08439 5.12778 3.94584 5.28441 3.81105 5.44207C2.24193 7.23915 1.19665 9.21539 0.611048 11.2493C0.429497 11.8656 0.290604 12.4853 0.192662 13.1058C-0.456073 17.0712 0.57112 20.9909 2.70775 24.1592C4.87953 27.4561 8.24981 29.9708 12.3562 30.8209C12.7275 30.9001 13.1039 30.9649 13.4854 31.0158C15.3299 31.27 17.2772 31.182 19.2684 30.6779C19.3445 30.6602 19.4206 30.6421 19.4967 30.623V30.6223C19.6465 30.5831 19.7967 30.5418 19.9462 30.4977L19.9414 30.4919C20.0646 30.4551 20.1881 30.4165 20.3117 30.3766C20.5553 30.2998 20.8 30.2172 21.045 30.1282L21.0443 30.1275C21.1897 30.0725 21.3348 30.0159 21.4788 29.9565L21.474 29.9517C21.6579 29.877 21.8422 29.7985 22.0265 29.7163L19.0203 26.7074C18.9794 26.72 18.9388 26.733 18.8975 26.7449L18.8958 26.7432C18.7326 26.793 18.5695 26.8387 18.4061 26.8807H18.4057C18.2419 26.921 18.0774 26.9582 17.9116 26.9916L17.9099 26.9899C17.6502 27.0452 17.3905 27.0909 17.1315 27.1271C16.9909 27.1459 16.8496 27.1626 16.708 27.1759L16.7066 27.1742C16.3438 27.2124 15.9831 27.2326 15.6255 27.2356C13.2769 27.2404 11.0011 26.5132 9.0917 25.2348C8.71427 24.9809 8.35151 24.7052 8.00547 24.41C6.36674 23.0023 5.1109 21.1523 4.4492 19.0546C4.30382 18.5826 4.18814 18.0963 4.10453 17.5967C4.07689 17.45 4.05266 17.3033 4.0315 17.1565C4.00727 16.9688 3.98713 16.7798 3.97212 16.5893C3.95813 16.4481 3.94721 16.3068 3.93902 16.1662C3.92742 15.9041 3.92503 15.64 3.93219 15.3738C3.93697 14.7042 4.00181 14.0476 4.12091 13.4088C4.49322 11.4892 5.35354 9.6993 6.57593 8.20321C8.31124 6.10344 10.7591 4.60838 13.4844 4.10365C13.8383 4.0412 14.198 3.99581 14.5631 3.96749C14.7484 3.94974 14.9331 3.93678 15.117 3.92824C15.2702 3.92347 15.4241 3.92176 15.5791 3.92347C15.7398 3.9221 15.8998 3.92449 16.0592 3.92961C16.3049 3.94155 16.5517 3.96169 16.7994 3.99035C17.5754 4.06543 18.3238 4.21763 19.0394 4.43775C21.1047 5.08887 22.9342 6.31434 24.3385 7.91689C24.3573 7.93839 24.3761 7.95989 24.3948 7.98173C24.4 7.98754 24.4047 7.99334 24.4099 7.99914C24.6446 8.27351 24.8671 8.55847 25.0763 8.85331C26.3158 10.6088 27.0819 12.6959 27.2218 14.8796C27.2229 14.8987 27.2242 14.9182 27.2252 14.9373C27.2597 15.5976 27.2369 16.2709 27.1509 16.9511L27.1567 16.9562C27.1154 17.2882 27.0591 17.6213 26.987 17.9547L26.9956 17.9633C26.9202 18.3165 26.8267 18.6697 26.7154 19.0215L29.7171 22.0256C29.8577 21.7086 29.9874 21.3922 30.1065 21.0762L30.115 21.0848C30.2051 20.8339 30.2891 20.5841 30.3669 20.335C30.4259 20.1535 30.4816 19.9726 30.5338 19.7917L30.5396 19.7965C30.5645 19.702 30.5884 19.6078 30.6116 19.5136C31.2736 17.0627 31.3074 14.68 30.8484 12.4707V12.4717Z" fill="#FF6B35"/>
</svg>
