<svg width="24" height="24" viewBox="0 0 24 24" fill="none" xmlns="http://www.w3.org/2000/svg">
<path d="M20.0477 11.1217C20.0267 11.0316 19.9837 10.9482 19.9227 10.8787C19.8618 10.8092 19.7846 10.7558 19.698 10.7232L14.1452 8.64103L15.5515 1.60978C15.5755 1.48977 15.5596 1.36522 15.5065 1.255C15.4533 1.14479 15.3656 1.05493 15.2567 0.999056C15.1478 0.943184 15.0237 0.924345 14.9031 0.945398C14.7826 0.966451 14.6721 1.02625 14.5886 1.11572L4.08865 12.3657C4.02559 12.4333 3.98017 12.5154 3.9564 12.6048C3.93264 12.6941 3.93126 12.788 3.95239 12.878C3.97353 12.968 4.01652 13.0514 4.07757 13.1208C4.13862 13.1902 4.21584 13.2436 4.3024 13.276L9.85521 15.3582L8.44896 22.3895C8.42481 22.5095 8.44049 22.6341 8.49362 22.7445C8.54675 22.8548 8.63443 22.9448 8.74334 23.0007C8.82292 23.0412 8.91092 23.0624 9.00021 23.0626C9.07743 23.0626 9.15382 23.0467 9.22463 23.0159C9.29543 22.9851 9.35914 22.94 9.41177 22.8835L19.9118 11.6335C19.9747 11.5659 20.02 11.4839 20.0438 11.3946C20.0675 11.3053 20.0688 11.2116 20.0477 11.1217ZM9.93771 20.6682L11.0486 15.1107C11.075 14.9798 11.0539 14.8438 10.9892 14.727C10.9244 14.6102 10.8202 14.5202 10.6952 14.4732L5.48271 12.5185L14.0571 3.33103L12.949 8.88947C12.9226 9.02039 12.9437 9.15641 13.0084 9.27321C13.0732 9.39001 13.1774 9.47996 13.3024 9.52697L18.5149 11.4817L9.93771 20.6682Z" fill="#F4F6F9"/>
</svg>
