<svg width="1623" height="1600" viewBox="0 0 1623 1600" fill="none" xmlns="http://www.w3.org/2000/svg">
<rect width="1623.01" height="1600" fill="#0E0E0E"/>
<path d="M392.318 920.24L310.746 838.594L324.546 824.795L406.118 906.441L392.318 920.24Z" fill="#FF6B35"/>
<path d="M334.684 814.659L348.478 800.865L430.063 882.498L416.261 896.3L334.684 814.659Z" fill="#FF6B35"/>
<path d="M421.426 773.771C420.822 770.764 420.095 767.803 419.253 764.896C411.217 736.539 392.439 713.526 368.607 698.726C346.28 684.547 319.333 677.601 291.982 681.161C287.097 681.765 282.211 682.699 277.354 683.982C260.941 688.222 244.981 696.389 230.613 709.052C230.598 709.065 230.583 709.078 230.57 709.091C230.488 709.162 230.406 709.237 230.327 709.308C230.102 709.508 229.874 709.71 229.649 709.915C229.536 710.017 229.423 710.117 229.313 710.219C229.101 710.414 228.886 710.608 228.674 710.803C228.476 710.982 228.282 711.164 228.087 711.345C227.998 711.43 227.906 711.514 227.816 711.599C227.225 712.152 226.639 712.707 226.063 713.265C224.62 714.639 223.189 716.062 221.776 717.531C220.709 718.696 219.67 719.87 218.659 721.053C206.891 734.53 199.052 749.351 194.661 764.604C193.299 769.226 192.258 773.874 191.523 778.527C186.658 808.265 194.361 837.661 210.385 861.422C226.672 886.147 251.948 905.006 282.743 911.381C285.528 911.975 288.351 912.461 291.212 912.843C305.045 914.749 319.648 914.089 334.582 910.309C335.152 910.176 335.723 910.04 336.294 909.897V909.892C337.417 909.598 338.543 909.288 339.664 908.958L339.629 908.914C340.552 908.638 341.479 908.349 342.405 908.049C344.233 907.473 346.068 906.854 347.905 906.186L347.9 906.181C348.99 905.769 350.078 905.344 351.158 904.899L351.122 904.863C352.502 904.302 353.884 903.714 355.266 903.097L332.721 880.532C332.414 880.627 332.109 880.724 331.8 880.813L331.787 880.801C330.564 881.174 329.34 881.517 328.114 881.832H328.112C326.883 882.134 325.65 882.413 324.406 882.664L324.393 882.651C322.446 883.066 320.498 883.408 318.555 883.68C317.501 883.821 316.441 883.946 315.379 884.046L315.369 884.033C312.649 884.32 309.943 884.471 307.261 884.494C289.648 884.529 272.581 879.076 258.261 869.489C255.431 867.584 252.71 865.517 250.115 863.303C237.825 852.746 228.407 838.872 223.445 823.14C222.355 819.6 221.487 815.954 220.86 812.207C220.653 811.106 220.471 810.006 220.312 808.905C220.131 807.498 219.98 806.08 219.867 804.652C219.762 803.592 219.68 802.533 219.619 801.478C219.532 799.513 219.514 797.532 219.568 795.536C219.603 790.514 220.09 785.59 220.983 780.799C223.775 766.403 230.227 752.98 239.394 741.76C252.408 726.013 270.766 714.801 291.204 711.015C293.858 710.547 296.556 710.207 299.294 709.994C300.684 709.861 302.069 709.764 303.448 709.7C304.597 709.664 305.751 709.651 306.913 709.664C308.119 709.654 309.319 709.672 310.514 709.71C312.357 709.8 314.207 709.951 316.065 710.166C321.885 710.729 327.498 711.87 332.864 713.521C348.353 718.404 362.073 727.594 372.605 739.613C372.746 739.774 372.886 739.935 373.027 740.099C373.066 740.143 373.101 740.186 373.14 740.23C374.901 742.287 376.569 744.424 378.138 746.635C387.433 759.8 393.179 775.453 394.228 791.83C394.236 791.973 394.246 792.119 394.254 792.262C394.512 797.214 394.341 802.264 393.696 807.365L393.739 807.403C393.43 809.893 393.007 812.391 392.467 814.891L392.531 814.955C391.966 817.604 391.265 820.253 390.43 822.892L412.942 845.421C413.996 843.044 414.969 840.671 415.862 838.301L415.926 838.365C416.601 836.484 417.231 834.611 417.815 832.742C418.257 831.381 418.674 830.024 419.066 828.668L419.11 828.704C419.296 827.995 419.476 827.289 419.65 826.582C424.615 808.201 424.868 790.333 421.426 773.764V773.771Z" fill="#FF6B35"/>
<path d="M521.695 897.116C498.474 897.116 481.504 892.75 470.787 884.017C459.97 875.285 454.612 861.094 454.612 841.644V761.363H485.97V838.468C485.97 850.377 488.649 858.911 494.207 864.071C499.764 869.33 508.794 871.911 521.496 871.911C534.198 871.911 543.328 869.33 548.885 864.17C554.343 859.01 557.122 850.377 557.122 838.468V761.363H588.182V841.644C588.182 861.193 582.824 875.285 572.205 884.017C561.587 892.75 544.717 897.116 521.695 897.116ZM760.006 895.529H727.258L716.144 869.33H645.786L634.374 895.529H603.314L663.252 761.363H700.266L760.006 895.529ZM676.847 798.377L655.313 847.796H706.915L685.778 798.377L682.007 787.66H680.717L676.847 798.377ZM810.961 895.529H781.091V761.363H817.412L877.35 842.239L888.365 857.918L889.159 857.72L888.563 832.117V761.363H918.433V895.529H881.021L810.961 800.858L810.267 801.057L810.961 826.659V895.529ZM1075.57 761.363V786.37H1024.36V895.529H993.105V786.37H941.602V761.363H1075.57ZM1165.52 897.116C1142.3 897.116 1125.33 892.75 1114.62 884.017C1103.8 875.285 1098.44 861.094 1098.44 841.644V761.363H1129.8V838.468C1129.8 850.377 1132.48 858.911 1138.04 864.071C1143.59 869.33 1152.62 871.911 1165.33 871.911C1178.03 871.911 1187.16 869.33 1192.72 864.17C1198.17 859.01 1200.95 850.377 1200.95 838.468V761.363H1232.01V841.644C1232.01 861.193 1226.65 875.285 1216.04 884.017C1205.42 892.75 1188.55 897.116 1165.52 897.116ZM1327.72 897.116C1305.2 897.116 1288.43 893.742 1277.41 886.895C1266.3 880.147 1260.24 869.132 1259.15 854.048H1289.72C1290.31 861.689 1293.78 867.147 1299.94 870.521C1306.09 873.895 1315.32 875.582 1327.72 875.582C1339.23 875.582 1347.57 873.995 1352.73 870.621C1357.89 867.247 1360.57 862.88 1360.57 857.323C1360.57 853.751 1359.48 850.873 1357.29 848.789C1355.11 846.705 1350.84 844.919 1344.69 843.331C1338.54 841.743 1329.41 840.354 1317.3 839.064C1308.47 838.171 1301.03 837.079 1294.88 835.69C1288.72 834.4 1283.36 832.812 1278.8 830.827C1274.23 828.942 1270.76 826.659 1268.18 823.881C1265.6 821.102 1263.62 818.026 1262.43 814.453C1261.23 810.881 1260.64 806.713 1260.64 801.851C1260.64 796.889 1261.33 792.324 1262.82 788.156C1264.31 783.988 1266.69 780.217 1270.07 776.645C1273.34 773.072 1277.51 770.095 1282.47 767.614C1287.43 765.233 1293.49 763.248 1300.73 761.859C1307.97 760.469 1316.11 759.775 1325.24 759.775C1345.78 759.775 1361.26 763.149 1371.78 769.698C1382.3 776.347 1388.06 786.469 1389.05 799.965L1359.58 799.767C1358.98 793.614 1355.91 788.95 1350.15 785.774C1344.39 782.698 1335.46 781.11 1323.46 781.11C1312.74 781.11 1304.8 782.698 1299.54 785.774C1294.28 788.95 1291.7 793.118 1291.7 798.377C1291.7 801.95 1292.79 804.728 1294.97 806.713C1297.16 808.698 1301.23 810.385 1307.28 811.774C1313.33 813.163 1322.46 814.453 1334.57 815.644C1345.68 816.835 1354.81 818.324 1361.96 820.11C1369.1 821.896 1374.86 824.278 1379.42 827.255C1383.89 830.232 1387.07 833.804 1388.85 837.972C1390.64 842.14 1391.53 847.3 1391.53 853.453C1391.53 859.804 1390.24 865.659 1387.86 870.819C1385.48 875.979 1381.71 880.643 1376.74 884.613C1371.78 888.582 1365.13 891.658 1356.8 893.842C1348.46 896.025 1338.84 897.116 1327.72 897.116Z" fill="#FF6B35"/>
</svg>
