<svg width="38" height="35" viewBox="0 0 38 35" fill="none" xmlns="http://www.w3.org/2000/svg">
<path d="M27.229 10.4179C27.6928 9.96227 28.4445 9.96227 28.9082 10.4179L36.4646 17.8417C36.9283 18.2973 36.9283 19.0358 36.4646 19.4914L28.9082 26.9153C28.4445 27.3709 27.6928 27.3709 27.229 26.9153C26.7653 26.4597 26.7653 25.7211 27.229 25.2655L32.7583 19.8332L14.25 19.8332C13.5942 19.8332 13.0625 19.3109 13.0625 18.6666C13.0625 18.0222 13.5942 17.4999 14.25 17.4999L32.7583 17.4999L27.229 12.0676C26.7653 11.612 26.7653 10.8735 27.229 10.4179Z" fill="#FFE91F"/>
<path d="M11.875 7C17.6198 7 22.4112 11.0081 23.5117 16.333H21.458C20.394 12.1405 16.5311 9 11.875 9C6.38767 9 2 13.3615 2 18.667C2.00018 23.9724 6.38778 28.333 11.875 28.333C16.5313 28.333 20.3943 25.1927 21.458 21H23.5088C22.4082 26.3248 17.6198 30.333 11.875 30.333C5.41909 30.333 0.166467 25.2719 0.00390625 18.9678L0 18.667C0 12.2237 5.31662 7 11.875 7Z" fill="#F4F6F9"/>
</svg>
