<svg width="140" height="175" viewBox="0 0 140 175" fill="none" xmlns="http://www.w3.org/2000/svg">
<path d="M70 10.5C56.469 10.5 45.5 21.469 45.5 35L45.5 70L38.5 70L38.5 35C38.5 17.603 52.603 3.5 70 3.5C87.397 3.5 101.5 17.603 101.5 35L101.5 70L94.5 70L94.5 35C94.5 21.469 83.531 10.5 70 10.5Z" fill="#F4F6F9"/>
<path d="M119 168V175H21V168H119ZM133 154V91C133 83.268 126.732 77 119 77H21C13.268 77 7 83.268 7 91V154C7 161.732 13.268 168 21 168V175L19.9199 174.973C8.82388 174.41 0 165.236 0 154V91C0 79.402 9.40202 70 21 70H119C130.598 70 140 79.402 140 91V154C140 165.598 130.598 175 119 175V168C126.732 168 133 161.732 133 154Z" fill="#F4F6F9"/>
<circle cx="42" cy="119" r="7" fill="url(#paint0_linear_6001_3930)"/>
<circle cx="70" cy="119" r="7" fill="url(#paint1_linear_6001_3930)"/>
<circle cx="98" cy="119" r="7" fill="url(#paint2_linear_6001_3930)"/>
<defs>
<linearGradient id="paint0_linear_6001_3930" x1="41.9992" y1="112" x2="41.9992" y2="126" gradientUnits="userSpaceOnUse">
<stop offset="0.456731" stop-color="#16CECE"/>
<stop offset="1" stop-color="#0000FF"/>
</linearGradient>
<linearGradient id="paint1_linear_6001_3930" x1="69.9992" y1="112" x2="69.9992" y2="126" gradientUnits="userSpaceOnUse">
<stop offset="0.456731" stop-color="#16CECE"/>
<stop offset="1" stop-color="#0000FF"/>
</linearGradient>
<linearGradient id="paint2_linear_6001_3930" x1="97.9992" y1="112" x2="97.9992" y2="126" gradientUnits="userSpaceOnUse">
<stop offset="0.456731" stop-color="#16CECE"/>
<stop offset="1" stop-color="#0000FF"/>
</linearGradient>
</defs>
</svg>
