<svg width="13" height="13" viewBox="0 0 13 13" fill="none" xmlns="http://www.w3.org/2000/svg">
<g clip-path="url(#clip0_8040_9426)">
<path d="M6.5 0C10.09 0 13 2.91 13 6.5C13 10.09 10.09 13 6.5 13C2.91 13 0 10.09 0 6.5C0 2.91 2.91 0 6.5 0ZM10.08 2.92C8.11 0.95 4.9 0.95 2.93 2.92C0.96 4.89 0.96 8.1 2.93 10.07L10.08 2.92Z" fill="#FF1F45"/>
<path d="M10.15 10.14C8.17999 12.11 4.93999 12.08 2.92999 10.07L10.08 2.92C12.09 4.93 12.12 8.17 10.15 10.14Z" fill="url(#paint0_linear_8040_9426)"/>
</g>
<defs>
<linearGradient id="paint0_linear_8040_9426" x1="6.49999" y1="6.5" x2="10.15" y2="10.15" gradientUnits="userSpaceOnUse">
<stop stop-color="#FF1F45"/>
<stop offset="1" stop-color="#660717"/>
</linearGradient>
<clipPath id="clip0_8040_9426">
<rect width="13" height="13" fill="white"/>
</clipPath>
</defs>
</svg>
